# xmcd
# 
# Track frame offsets:
#     150
#     22733
#     44271
#     62753
#     86806
#     108288
#     133003
#     154518
#     181567
# 
# Disc length: 2689
# 
# Revision: 6
# Processed by: cddbd v1.5.2PL0 Copyright (c) Steve Scherf et al.
# Submitted via: fre:ac v1.0.31
# 
DISCID=630a7f09
DTITLE=Keiko Matsui - The Road...
DYEAR=2011
DGENRE=Jazz
TTITLE0=Secret Pond
TTITLE1=Falcon's Wing
TTITLE2=Nguea Wonja
TTITLE3=Bohemian Concerto
TTITLE4=Embrace and Surrender
TTITLE5=Awakening
TTITLE6=Touching Peace
TTITLE7=Affirmation
TTITLE8=The Road...
EXTD=YEAR: 2011
EXTT0=
EXTT1=
EXTT2=
EXTT3=
EXTT4=
EXTT5=
EXTT6=
EXTT7=
EXTT8=
PLAYORDER=
